<?xml version="1.0" ?>
<!DOCTYPE svg  PUBLIC '-//W3C//DTD SVG 1.1//EN'  'http://www.w3.org/Graphics/SVG/1.1/DTD/svg11.dtd'>
<!-- Uploaded to: SVG Repo, www.svgrepo.com, Generator: SVG Repo Mixer Tools -->
<svg fill="#000000" width="800px" height="800px" viewBox="0 0 512 512" enable-background="new 0 0 512 512" id="Call_x5F_to_x5F_action" version="1.1" xml:space="preserve" xmlns="http://www.w3.org/2000/svg" xmlns:xlink="http://www.w3.org/1999/xlink">
<g>
<path d="M168.741,206.897V50.048c0-3.741-3.033-6.774-6.774-6.774h-22.579c-17.289,0-31.355,14.066-31.355,31.357v138.474   c0,17.291,14.066,31.357,31.355,31.357h3.882c3.741,0,6.774-3.034,6.774-6.774s-3.033-6.774-6.774-6.774h-3.882   c-9.819,0-17.807-7.99-17.807-17.809V74.631c0-9.819,7.988-17.809,17.807-17.809h15.805v150.076c0,3.74,3.033,6.774,6.774,6.774   C165.708,213.672,168.741,210.638,168.741,206.897z"/>
<path d="M189.832,67.101l120.782,42.769v29.593c0,3.74,3.033,6.774,6.773,6.774c3.742,0,6.775-3.034,6.775-6.774v-27.605h18.351   c6.343,0,11.503,5.16,11.503,11.503v23.844c0,3.741,3.033,6.774,6.774,6.774s6.774-3.034,6.774-6.774V123.36   c0-13.813-11.238-25.052-25.052-25.052h-23.964L194.354,54.331c-3.527-1.253-7.399,0.596-8.647,4.125   C184.459,61.982,186.306,65.853,189.832,67.101z"/>
<path d="M294.678,440.396c-68.757-6.938-120.606-64.36-120.606-133.569c0-74.028,60.227-134.255,134.255-134.255   c74.028,0,134.255,60.227,134.255,134.255c0,5.663-0.355,11.361-1.059,16.939c-0.467,3.713,2.164,7.102,5.876,7.568   c3.712,0.459,7.101-2.162,7.567-5.875c0.771-6.139,1.164-12.406,1.164-18.633c0-81.5-66.305-147.804-147.804-147.804   c-81.5,0-147.804,66.304-147.804,147.804c0,76.193,57.089,139.41,132.793,147.05c0.232,0.022,0.461,0.034,0.689,0.034   c3.436,0,6.379-2.604,6.731-6.094C301.112,444.093,298.399,440.771,294.678,440.396z"/>
<path d="M397.582,306.826c0,3.74,3.032,6.774,6.773,6.774c3.742,0,6.774-3.034,6.774-6.774   c0-56.687-46.117-102.804-102.803-102.804S205.524,250.14,205.524,306.826c0,50.015,35.698,92.594,84.88,101.244   c0.397,0.07,0.793,0.104,1.182,0.104c3.228,0,6.086-2.315,6.665-5.603c0.647-3.686-1.813-7.197-5.499-7.846   c-42.693-7.508-73.679-44.477-73.679-87.9c0-49.215,40.04-89.255,89.254-89.255S397.582,257.611,397.582,306.826z"/>
<path d="M308.327,263.045c24.141,0,43.78,19.641,43.78,43.781c0,3.74,3.032,6.774,6.773,6.774c3.742,0,6.774-3.034,6.774-6.774   c0-31.612-25.717-57.329-57.328-57.329s-57.329,25.717-57.329,57.329c0,23.488,14.068,44.355,35.841,53.162   c0.832,0.338,1.691,0.496,2.537,0.496c2.679,0,5.217-1.599,6.282-4.235c1.403-3.468-0.271-7.417-3.739-8.819   c-16.629-6.727-27.373-22.664-27.373-40.604C264.547,282.686,284.187,263.045,308.327,263.045z"/>
<path d="M460.771,404.332l-30.209-54.702c-7.634-13.82-23.264-21.577-38.883-19.286l-34.74,5.078l-26.965-38.238   c-3.481-4.939-8.686-8.18-14.655-9.121c-5.97-0.942-11.917,0.535-16.751,4.162c-9.145,6.863-11.547,19.822-5.459,29.524   l44.854,70.978c1.997,3.162,6.183,4.104,9.345,2.107c3.164-2,4.106-6.183,2.107-9.347l-44.843-70.959   c-2.36-3.763-1.427-8.798,2.126-11.466c1.879-1.41,4.189-1.984,6.508-1.617c2.319,0.367,4.342,1.625,5.695,3.544l29.363,41.642   c1.473,2.086,3.992,3.177,6.517,2.799l38.859-5.682c10.076-1.479,20.14,3.525,25.06,12.434l30.209,54.701   c3.262,5.905,1.813,13.258-3.443,17.486l-29.555,23.76c-5.182,4.166-12.61,4.057-17.666-0.26l-23.611-20.156   c-5.996-5.119-13.922-7.508-21.775-6.556c-5.272,0.643-10.504-1.629-13.643-5.923c-2.283-3.125-3.235-6.956-2.679-10.787   l0.392-2.703c0.537-3.703-2.028-7.141-5.731-7.678c-3.694-0.529-7.139,2.027-7.677,5.73l-0.393,2.703   c-1.068,7.361,0.76,14.723,5.15,20.729c6.027,8.247,16.066,12.609,26.242,11.375c4.071-0.499,8.197,0.75,11.316,3.414   l23.612,20.156c5.11,4.362,11.445,6.553,17.789,6.553c6.071-0.002,12.149-2.01,17.162-6.039l29.555-23.761   C464.355,430.563,467.223,416.015,460.771,404.332z"/>
<path d="M80.667,137.093H54.575c-3.741,0-6.774,3.034-6.774,6.774s3.033,6.774,6.774,6.774h26.092c3.742,0,6.774-3.033,6.774-6.774   S84.409,137.093,80.667,137.093z"/>
<path d="M77.775,219.221l-24.69,8.441c-3.54,1.209-5.428,5.062-4.219,8.6c0.963,2.814,3.593,4.585,6.41,4.585   c0.727,0,1.467-0.117,2.192-0.366l24.69-8.441c3.54-1.21,5.428-5.062,4.218-8.6C85.165,219.899,81.312,218.002,77.775,219.221z"/>
<path d="M53.085,60.073l24.69,8.441c0.727,0.25,1.465,0.367,2.192,0.367c2.816,0,5.447-1.771,6.409-4.585   c1.21-3.538-0.678-7.391-4.218-8.6l-24.69-8.441c-3.538-1.216-7.39,0.678-8.602,4.218C47.657,55.011,49.545,58.863,53.085,60.073z"/>
</g>
</svg>