<?xml version="1.0" encoding="utf-8"?>
<!-- Uploaded to: SVG Repo, www.svgrepo.com, Generator: SVG Repo Mixer Tools -->
<svg width="800px" height="800px" viewBox="0 0 1024 1024" class="icon"  version="1.1" xmlns="http://www.w3.org/2000/svg"><path d="M177.5 502.9c0-185.2 151.5-336.7 336.7-336.7s336.7 151.5 336.7 336.7v63.5H969v-82.3c0-250.8-205.2-456-456-456S57 233.3 57 484.1v82.3h120.5v-63.5z" fill="#FAFCFB" /><path d="M969 580.3H850.9c-7.7 0-13.9-6.2-13.9-13.9v-63.5c0-85.9-33.7-166.8-94.8-228C681 213.7 600 180 514.2 180c-85.9 0-166.8 33.7-228 94.8C225 336 191.4 417 191.4 502.9v63.5c0 7.7-6.2 13.9-13.9 13.9H57c-7.7 0-13.9-6.2-13.9-13.9v-82.3c0-63.2 12.5-124.6 37.1-182.5 23.7-55.9 57.7-106.2 100.9-149.4S274.6 75 330.5 51.3c57.9-24.6 119.3-37 182.5-37s124.6 12.5 182.5 37.1c55.9 23.7 106.2 57.7 149.4 100.9s77.2 93.5 100.9 149.4c24.6 57.9 37.1 119.3 37.1 182.5v82.3c0 7.6-6.2 13.8-13.9 13.8z m-104.3-27.8h90.4v-68.4c0-59.4-11.7-117.2-34.9-171.6-22.3-52.6-54.3-99.9-95-140.6-40.7-40.7-88-72.7-140.6-95C630.2 53.7 572.4 42 513 42S395.8 53.7 341.4 76.9c-52.6 22.3-99.9 54.3-140.6 95-40.7 40.7-72.7 88-95 140.6C82.6 367 70.9 424.7 70.9 484.1v68.4h92.8v-49.7c0-47.1 9.3-92.9 27.7-136.1 17.7-41.7 43-79.2 75.3-111.4C298.8 223 336.3 197.7 378 180c43.2-18.4 89-27.7 136.1-27.7s92.9 9.3 136.1 27.7c41.7 17.7 79.2 43 111.4 75.3s57.6 69.7 75.3 111.4c18.4 43.2 27.7 89 27.7 136.1v49.7z" fill="#0F0F0F" /><path d="M109.3 765.3H57V566.4h66.2L110.5 595c-0.8 2.4-1.2 5-1.2 7.6v162.7z" fill="#FAFCFB" /><path d="M109.3 779.2H57c-7.7 0-13.9-6.2-13.9-13.9V566.4c0-7.7 6.2-13.9 13.9-13.9h66.2c4.7 0 9.1 2.4 11.6 6.3 2.6 3.9 3 8.9 1.1 13.2l-12.3 27.9c-0.2 0.9-0.4 1.8-0.4 2.7v162.7c-0.1 7.7-6.3 13.9-13.9 13.9z m-38.4-27.8h24.5V602.6c0-4.1 0.7-8.1 1.9-12 0.1-0.4 0.3-0.8 0.5-1.2l4.1-9.2h-31v171.2z" fill="#0F0F0F" /><path d="M103.6 896.4H99c-19.2 0-34.9-15.7-34.9-34.9V735.2c0-19.2 15.7-34.9 34.9-34.9h4.6c19.2 0 34.9 15.7 34.9 34.9v126.3c0 19.2-15.7 34.9-34.9 34.9z" fill="#845A3D" /><path d="M101.3 910.3c-28.2 0-51.1-22.9-51.1-51.1V737.5c0-28.2 22.9-51.1 51.1-51.1s51.1 22.9 51.1 51.1v121.7c0 28.2-22.9 51.1-51.1 51.1z m0-196.1c-12.9 0-23.3 10.5-23.3 23.3v121.7c0 12.9 10.5 23.3 23.3 23.3s23.3-10.5 23.3-23.3V737.5c0-12.8-10.4-23.3-23.3-23.3z" fill="#141414" /><path d="M221.8 995.5c-43.9 0-79.7-33.1-79.7-73.6V693c0-40.5 35.9-73.6 79.7-73.6 43.9 0 79.7 33.1 79.7 73.6v228.9c0 40.5-35.8 73.6-79.7 73.6z" fill="#9DC6AF" /><path d="M221.8 1009.3c-51.6 0-93.6-39.2-93.6-87.4v-229c0-48.2 42-87.4 93.6-87.4 51.6 0 93.6 39.2 93.6 87.4v228.9c0 48.3-42 87.5-93.6 87.5z m0-376.1c-36.3 0-65.9 26.8-65.9 59.7v228.9c0 32.9 29.6 59.7 65.9 59.7 36.3 0 65.9-26.8 65.9-59.7V692.9c0-32.9-29.6-59.7-65.9-59.7z" fill="#191919" /><path d="M301.5 691.8H142.1" fill="#9DC6AF" /><path d="M142.1 678h159.5v27.7H142.1z" fill="#191919" /><path d="M301.5 768.9H142.1" fill="#9DC6AF" /><path d="M142.1 755h159.5v27.7H142.1z" fill="#191919" /><path d="M301.5 845.9H142.1" fill="#9DC6AF" /><path d="M142.1 832.1h159.5v27.7H142.1z" fill="#191919" /><path d="M301.5 923H142.1" fill="#9DC6AF" /><path d="M142.1 909.1h159.5v27.7H142.1z" fill="#191919" /><path d="M221.8 671.8v149.8" fill="#191919" /><path d="M221.8 840.8c-10.6 0-19.2-8.6-19.2-19.2V671.8c0-10.6 8.6-19.2 19.2-19.2s19.2 8.6 19.2 19.2v149.8c0 10.6-8.6 19.2-19.2 19.2z" fill="#EDF7F1" /><path d="M221.8 902.8" fill="#191919" /><path d="M221.8 922c-5.1 0-10-2-13.6-5.6-3.6-3.6-5.6-8.5-5.6-13.6 0-5 2-10 5.6-13.6 3.6-3.6 8.5-5.6 13.6-5.6 5 0 10 2 13.6 5.6 3.6 3.6 5.6 8.5 5.6 13.6s-2.1 10-5.6 13.6c-3.6 3.6-8.6 5.6-13.6 5.6z" fill="#EDF7F1" /><path d="M916.7 765.3H969V566.4h-66.2l12.7 28.6c0.8 2.4 1.2 5 1.2 7.6v162.7z" fill="#FAFCFB" /><path d="M969 779.2h-52.3c-7.7 0-13.9-6.2-13.9-13.9V602.6c0-0.9-0.1-1.8-0.4-2.7L890.2 572c-1.9-4.3-1.5-9.2 1.1-13.2 2.6-3.9 6.9-6.3 11.6-6.3H969c7.7 0 13.9 6.2 13.9 13.9v198.9c0 7.7-6.2 13.9-13.9 13.9z m-38.4-27.8h24.5V580.3h-31l4.1 9.2c0.2 0.4 0.3 0.8 0.5 1.2 1.3 3.9 1.9 7.9 1.9 12v148.7z" fill="#0F0F0F" /><path d="M922.4 896.4h4.6c19.2 0 34.9-15.7 34.9-34.9V735.2c0-19.2-15.7-34.9-34.9-34.9h-4.6c-19.2 0-34.9 15.7-34.9 34.9v126.3c0 19.2 15.7 34.9 34.9 34.9z" fill="#845A3D" /><path d="M924.7 910.3c-28.2 0-51.1-22.9-51.1-51.1V737.5c0-28.2 22.9-51.1 51.1-51.1s51.1 22.9 51.1 51.1v121.7c0 28.2-22.9 51.1-51.1 51.1z m0-196.1c-12.9 0-23.3 10.5-23.3 23.3v121.7c0 12.9 10.5 23.3 23.3 23.3 12.9 0 23.3-10.5 23.3-23.3V737.5c0.1-12.8-10.4-23.3-23.3-23.3z" fill="#141414" /><path d="M804.2 995.5c43.9 0 79.7-33.1 79.7-73.6V693c0-40.5-35.9-73.6-79.7-73.6-43.9 0-79.7 33.1-79.7 73.6v228.9c0 40.5 35.8 73.6 79.7 73.6z" fill="#9DC6AF" /><path d="M804.2 1009.3c-51.6 0-93.6-39.2-93.6-87.4v-229c0-48.2 42-87.4 93.6-87.4 51.6 0 93.6 39.2 93.6 87.4v228.9c0 48.3-42 87.5-93.6 87.5z m0-376.1c-36.3 0-65.9 26.8-65.9 59.7v228.9c0 32.9 29.6 59.7 65.9 59.7 36.3 0 65.9-26.8 65.9-59.7V692.9c0-32.9-29.6-59.7-65.9-59.7z" fill="#191919" /><path d="M724.5 691.8h159.4" fill="#9DC6AF" /><path d="M724.5 678H884v27.7H724.5z" fill="#191919" /><path d="M724.5 768.9h159.4" fill="#9DC6AF" /><path d="M724.5 755H884v27.7H724.5z" fill="#191919" /><path d="M724.5 845.9h159.4" fill="#9DC6AF" /><path d="M724.5 832.1H884v27.7H724.5z" fill="#191919" /><path d="M724.5 923h159.4" fill="#9DC6AF" /><path d="M724.5 909.1H884v27.7H724.5z" fill="#191919" /><path d="M804.2 671.8v149.8" fill="#191919" /><path d="M804.2 840.8c-10.6 0-19.2-8.6-19.2-19.2V671.8c0-10.6 8.6-19.2 19.2-19.2s19.2 8.6 19.2 19.2v149.8c0 10.6-8.6 19.2-19.2 19.2z" fill="#EDF7F1" /><path d="M804.2 902.8" fill="#191919" /><path d="M804.2 922c-5 0-10-2-13.6-5.6-3.6-3.6-5.6-8.5-5.6-13.6 0-5 2-10 5.6-13.6 3.6-3.6 8.5-5.6 13.6-5.6s10 2 13.6 5.6c3.6 3.6 5.6 8.5 5.6 13.6s-2 10-5.6 13.6c-3.6 3.6-8.5 5.6-13.6 5.6z" fill="#EDF7F1" /></svg>