<?xml version="1.0" ?>
<!DOCTYPE svg  PUBLIC '-//W3C//DTD SVG 1.1//EN'  'http://www.w3.org/Graphics/SVG/1.1/DTD/svg11.dtd'>
<!-- Uploaded to: SVG Repo, www.svgrepo.com, Generator: SVG Repo Mixer Tools -->
<svg fill="#000000" width="800px" height="800px" viewBox="0 0 512 512" enable-background="new 0 0 512 512" id="Keyword_x5F_find" version="1.1" xml:space="preserve" xmlns="http://www.w3.org/2000/svg" xmlns:xlink="http://www.w3.org/1999/xlink">
<g>
<path d="M388.517,407.855c-3.741,0-6.774,3.034-6.774,6.775v14.039c0,18.449-15.01,33.459-33.459,33.459H106.978   c7.942-7.175,14.027-17.469,14.027-31.648v-66.248c0-3.742-3.033-6.774-6.774-6.774c-3.741,0-6.774,3.032-6.774,6.774v66.248   c0,26.054-29.251,31.527-30.477,31.745c-0.2,0.034-0.384,0.104-0.577,0.155c-0.557-0.148-1.131-0.252-1.734-0.252   c-14.471,0-26.244-11.773-26.244-26.244v-44.238h36.58c3.741,0,6.774-3.033,6.774-6.774s-3.033-6.774-6.774-6.774H41.65   c-3.741,0-6.774,3.033-6.774,6.774v51.013c0,21.942,17.851,39.793,39.792,39.793c0.601,0,1.172-0.104,1.727-0.25   c0.555,0.146,1.125,0.25,1.724,0.25h270.164c25.92,0,47.008-21.088,47.008-47.008v-14.039   C395.291,410.89,392.258,407.855,388.517,407.855z"/>
<path d="M114.23,136.049c3.742,0,6.774-3.033,6.774-6.774V49.871h260.737v88.542c0,3.742,3.033,6.774,6.774,6.774   s6.774-3.033,6.774-6.774V43.097c0-3.741-3.033-6.774-6.774-6.774H114.23c-3.741,0-6.774,3.033-6.774,6.774v86.178   C107.457,133.017,110.489,136.049,114.23,136.049z"/>
<path d="M241.122,93.065c-3.742,0-6.774,3.033-6.774,6.774c0,3.742,3.033,6.774,6.774,6.774h109.245   c3.742,0,6.774-3.033,6.774-6.774c0-3.741-3.032-6.774-6.774-6.774H241.122z"/>
<path d="M150.997,93.065c-3.741,0-6.774,3.033-6.774,6.774c0,3.742,3.033,6.774,6.774,6.774h48.424   c3.741,0,6.774-3.033,6.774-6.774c0-3.741-3.033-6.774-6.774-6.774H150.997z"/>
<path d="M350.367,433.662c3.742,0,6.774-3.033,6.774-6.774c0-3.74-3.032-6.774-6.774-6.774h-47.043   c-3.742,0-6.774,3.034-6.774,6.774c0,3.741,3.032,6.774,6.774,6.774H350.367z"/>
<path d="M144.223,426.888c0,3.741,3.033,6.774,6.774,6.774h106.326c3.741,0,6.774-3.033,6.774-6.774   c0-3.74-3.033-6.774-6.774-6.774H150.997C147.256,420.113,144.223,423.147,144.223,426.888z"/>
<path d="M204.115,372.178h-53.118c-3.741,0-6.774,3.032-6.774,6.773c0,3.742,3.033,6.774,6.774,6.774h53.118   c3.742,0,6.774-3.032,6.774-6.774C210.89,375.21,207.857,372.178,204.115,372.178z"/>
<path d="M355.844,275.283H246.322c-0.032,0-0.063,0.009-0.095,0.01c-0.249,0.003-0.491,0.043-0.736,0.074   c-0.204,0.024-0.412,0.034-0.61,0.077c-0.179,0.039-0.348,0.108-0.523,0.162c-0.248,0.075-0.499,0.14-0.734,0.241   c-0.14,0.062-0.266,0.148-0.402,0.219c-0.248,0.129-0.5,0.25-0.728,0.406c-0.161,0.11-0.3,0.249-0.451,0.373   c-0.183,0.149-0.374,0.287-0.54,0.455c-0.143,0.145-0.259,0.314-0.389,0.472c-0.15,0.183-0.31,0.355-0.44,0.554   c-0.095,0.143-0.165,0.307-0.25,0.458c-0.134,0.242-0.272,0.48-0.377,0.739c-0.011,0.027-0.028,0.049-0.039,0.076   c-1.082,2.781-2.322,5.544-3.685,8.211c-1.702,3.332-0.381,7.412,2.95,9.114c0.987,0.505,2.04,0.744,3.076,0.744   c2.464,0,4.841-1.35,6.038-3.694c0.861-1.686,1.668-3.406,2.438-5.143h105.017c3.742,0,6.774-3.033,6.774-6.775   C362.618,278.315,359.586,275.283,355.844,275.283z"/>
<path d="M277.896,246.49h17.817c3.742,0,6.775-3.033,6.775-6.774v-18.464c0-1.821,1.48-3.302,3.301-3.302h22.291   c1.196,0,1.981,0.611,2.344,0.976c0.361,0.365,0.968,1.156,0.958,2.353l-0.15,18.815c-0.015,1.806,0.692,3.543,1.965,4.824   c1.272,1.283,3.003,2.004,4.81,2.004h18.482c3.742,0,6.774-3.033,6.774-6.774c0-3.741-3.032-6.774-6.774-6.774h-11.654   l0.096-11.987c0.037-4.527-1.699-8.79-4.889-12.003c-3.188-3.213-7.435-4.982-11.961-4.982h-22.291   c-9.29,0-16.85,7.56-16.85,16.851v11.689h-11.044c-3.741,0-6.774,3.033-6.774,6.774C271.121,243.457,274.154,246.49,277.896,246.49   z"/>
<path d="M156.323,350.355c7.915,0,15.803-0.899,23.446-2.674c3.645-0.846,5.913-4.484,5.067-8.129   c-0.845-3.645-4.481-5.918-8.129-5.067c-6.641,1.54-13.498,2.322-20.384,2.322c-49.5,0-89.772-40.272-89.772-89.772   c0-49.501,40.272-89.773,89.772-89.773c11.764,0,23.197,2.238,33.98,6.653c3.464,1.418,7.419-0.242,8.836-3.703   c1.417-3.462-0.241-7.418-3.703-8.836c-12.421-5.084-25.581-7.662-39.114-7.662c-56.971,0-103.321,46.349-103.321,103.321   C53.002,304.006,99.352,350.355,156.323,350.355z"/>
<path d="M156.323,222.25c1.066,0,2.135,0.068,3.179,0.201c3.718,0.481,7.104-2.149,7.579-5.859   c0.475-3.711-2.148-7.104-5.859-7.579c-1.612-0.206-3.26-0.311-4.899-0.311c-21.136,0-38.333,17.196-38.333,38.333   c0,21.137,17.196,38.332,38.333,38.332c3.741,0,6.774-3.032,6.774-6.773c0-3.742-3.033-6.774-6.774-6.774   c-13.667,0-24.784-11.118-24.784-24.784C131.539,233.369,142.656,222.25,156.323,222.25z"/>
<path d="M469.466,392.541l-47.604-47.605c-2.646-2.645-6.936-2.645-9.581,0c-2.646,2.646-2.646,6.936,0,9.581l47.604,47.604   c4.93,4.93,4.93,12.951,0.001,17.883c-4.931,4.928-12.953,4.932-17.884,0l-63.128-63.129   c28.508-23.375,46.733-58.849,46.733-98.505c0-70.224-57.132-127.355-127.355-127.355c-70.225,0-127.356,57.132-127.356,127.355   s57.132,127.355,127.356,127.355c25.654,0,49.544-7.651,69.557-20.754l64.613,64.611c5.106,5.107,11.813,7.659,18.521,7.659   c6.707,0,13.415-2.552,18.522-7.659C479.678,419.371,479.678,402.755,469.466,392.541z M298.252,372.178   c-62.754,0-113.808-51.055-113.808-113.808s51.054-113.807,113.808-113.807c62.753,0,113.807,51.054,113.807,113.807   S361.005,372.178,298.252,372.178z"/>
<path d="M298.252,165.201c-51.374,0-93.169,41.795-93.169,93.169c0,51.374,41.795,93.169,93.169,93.169   c51.373,0,93.168-41.795,93.168-93.169C391.42,206.997,349.625,165.201,298.252,165.201z M298.252,337.99   c-43.902,0-79.621-35.717-79.621-79.62c0-43.903,35.718-79.62,79.621-79.62s79.619,35.717,79.619,79.62   C377.871,302.273,342.154,337.99,298.252,337.99z"/>
<path d="M244.6,230.667c0.125,0.648,0.218,1.286,0.326,1.928c0.425,2.627,0.745,5.276,0.936,7.941   c0.005,0.083,0.011,0.166,0.017,0.248c0.063,0.912,0.109,1.825,0.145,2.739c0.039,1.147,0.072,2.301,0.072,3.512   c0,1.603-0.059,3.225-0.144,4.835c-0.046,0.874-0.09,1.751-0.161,2.616c-0.307,3.729,2.468,7,6.196,7.307   c0.189,0.016,0.377,0.023,0.563,0.023c3.489,0,6.452-2.68,6.744-6.219c0.056-0.678,0.083-1.364,0.126-2.047   c0.007-0.079,0.031-0.152,0.036-0.232c0.015-0.237,0.009-0.476,0.021-0.713c0.099-1.855,0.167-3.716,0.167-5.57   c0-1.355-0.032-2.709-0.085-4.06c-0.035-1.023-0.096-2.029-0.159-3.021c-0.012-0.159-0.021-0.317-0.032-0.475   c-0.21-3.035-0.56-5.997-1.058-8.977c-0.126-0.78-0.253-1.56-0.396-2.336c-0.015-0.078-0.023-0.153-0.039-0.23   c-0.004-0.021-0.014-0.04-0.018-0.061c-0.619-3.303-1.389-6.574-2.328-9.798c-1.048-3.592-4.805-5.657-8.399-4.608   c-3.591,1.047-5.654,4.807-4.608,8.399C243.365,224.762,244.054,227.7,244.6,230.667z"/>
</g>
</svg>