<?xml version="1.0" encoding="utf-8"?>
<!-- Uploaded to: SVG Repo, www.svgrepo.com, Generator: SVG Repo Mixer Tools -->
<svg width="800px" height="800px" viewBox="0 0 1024 1024" class="icon"  version="1.1" xmlns="http://www.w3.org/2000/svg"><path d="M854.8 154.1H171.2l7.1-10c22.5-31.3 34.5-68.3 34.5-106.1h600.3c0 37.8 12 74.8 34.5 106.1l7.2 10z" fill="#D39E33" /><path d="M854.8 167.1H171.2c-4.9 0-9.3-2.7-11.6-7.1-2.2-4.3-1.8-9.6 1-13.5l7.1-10c21-29.2 32.1-63.3 32.1-98.6 0-7.2 5.8-13 13-13h600.3c7.2 0 13 5.8 13 13 0 35.2 11.1 69.3 32 98.6l7.1 10c2.8 4 3.2 9.2 1 13.5-2.1 4.3-6.6 7.1-11.4 7.1z m-658.7-26H830c-17.2-27.5-27.2-58.2-29.4-90.1H225.4c-2.1 31.8-12.1 62.6-29.3 90.1z" fill="#111111" /><path d="M676.6 995.9H332c-57.5 0-104.5-46-105.8-103.5l-17.3-689.1H817l-34.8 691.4c-2.4 56.7-49 101.2-105.6 101.2z" fill="#FAFCFB" /><path d="M676.6 1008.9H332c-31.2 0-60.7-12-83.1-33.9-22.3-21.8-35-51.1-35.7-82.3l-17.7-702.4h635.1l-35.5 705.1c-2.6 63.6-54.8 113.5-118.5 113.5zM222.3 216.4l17 675.8c0.5 24.4 10.4 47.3 27.9 64.3 17.4 17.1 40.5 26.5 64.9 26.5h344.5c49.8 0 90.5-39 92.7-88.7l34.1-677.9H222.3z" fill="#141414" /><path d="M848.2 208.2H177.8c-24.2 0-44.1-19.8-44.1-44.1 0-24.2 19.8-44.1 44.1-44.1h670.4c24.2 0 44.1 19.8 44.1 44.1s-19.9 44.1-44.1 44.1z" fill="#D39E33" /><path d="M848.2 221.2H177.8c-31.5 0-57.1-25.6-57.1-57.1s25.6-57.1 57.1-57.1h670.4c31.5 0 57.1 25.6 57.1 57.1s-25.6 57.1-57.1 57.1z m-670.4-88.1c-17.1 0-31.1 13.9-31.1 31.1s13.9 31.1 31.1 31.1h670.4c17.1 0 31.1-13.9 31.1-31.1s-13.9-31.1-31.1-31.1H177.8z" fill="#111111" /><path d="M245.6 198.2v-81.8" fill="#D39E33" /><path d="M232.6 116.4h26v81.7h-26z" fill="#111111" /><path d="M379.3 198.2v-81.8" fill="#D39E33" /><path d="M366.3 116.4h26v81.7h-26z" fill="#111111" /><path d="M513 205v-81.7" fill="#D39E33" /><path d="M500 123.3h26V205h-26z" fill="#111111" /><path d="M646.7 205v-81.7" fill="#D39E33" /><path d="M633.7 123.3h26V205h-26z" fill="#111111" /><path d="M780.4 205v-81.7" fill="#D39E33" /><path d="M767.4 123.3h26V205h-26z" fill="#111111" /><path d="M833.8 692.3H192.2l-21-325.4h683.6z" fill="#845A3D" /><path d="M833.8 705.3H192.2c-6.9 0-12.5-5.3-13-12.2l-21-325.3c-0.2-3.6 1-7.1 3.5-9.7 2.5-2.6 5.9-4.1 9.5-4.1h683.5c3.6 0 7 1.5 9.5 4.1 2.5 2.6 3.7 6.1 3.5 9.7l-21 325.3c-0.4 6.8-6.1 12.2-12.9 12.2z m-629.4-26h617.1L840.8 380H185.1l19.3 299.3z" fill="#141414" /><path d="M227.9 376.7h24.3v304.1h-24.3zM296.3 377.6h24.3v304.1h-24.3zM364.7 377.6H389v304.1h-24.3zM433 377.6h24.3v304.1H433zM501.4 377.6h24.3v304.1h-24.3zM569.8 377.6h24.3v304.1h-24.3zM639.3 377.6h22.1v304.1h-22.1zM707.6 377.6h22.1v304.1h-22.1zM776 377.6h22.1v304.1H776z" fill="#663C20" /><path d="M513 529.6m-113.7 0a113.7 113.7 0 1 0 227.4 0 113.7 113.7 0 1 0-227.4 0Z" fill="#FAFCFB" /><path d="M513 656.3c-69.9 0-126.7-56.8-126.7-126.7S443.1 402.9 513 402.9s126.7 56.8 126.7 126.7S582.9 656.3 513 656.3z m0-227.4c-55.5 0-100.7 45.2-100.7 100.7S457.5 630.3 513 630.3s100.7-45.2 100.7-100.7S568.5 428.9 513 428.9z" fill="#141414" /><path d="M226.3 912.1l556 2.3" fill="#FAFCFB" /><path d="M226.359 899.045l556 2.326-0.109 26-556-2.326z" fill="#141414" /></svg>